<svg width="1089" height="840" viewBox="0 0 1089 840" fill="none" xmlns="http://www.w3.org/2000/svg">
<g id="undraw_in_love_q0bn 1" clip-path="url(#clip0_1_3)">
<path id="uuid-afa4718a-41ef-46ad-9f1b-fdedc1410b9c-40" d="M338.359 465.219C342.966 459.042 346.015 451.859 347.273 444.268L398.525 382.215L368.277 358.702L319.54 424.181C312.717 427.733 306.837 432.873 302.404 439.175C291.1 454.767 289.968 473.251 299.904 480.433C309.824 487.632 327.04 480.811 338.343 465.219H338.359Z" fill="#FFB6B6"/>
<path id="Vector" d="M545.946 218.943L481.834 176.113L351.722 374.027L385.602 410.381L545.946 218.943Z" fill="#43A1D7"/>
<path id="Vector_2" d="M0 459.828C0 461.195 1.10051 462.295 2.46828 462.295H1086.53C1087.9 462.295 1089 461.195 1089 459.828C1089 458.46 1087.9 457.36 1086.53 457.36H2.46828C1.10051 457.36 0 458.46 0 459.828Z" fill="#3F3D56"/>
<path id="Vector_3" d="M436.524 163.539L429.371 114.265L492.54 98.2022L500.936 141.802L436.524 163.539Z" fill="#FFB6B6"/>
<path id="Vector_4" d="M245.995 691.424L253.494 761.366L305.124 745.538L296.791 689.758L245.995 691.424Z" fill="#FFB6B6"/>
<path id="Vector_5" d="M428.381 387.512C428.381 387.512 259.311 419.984 239.329 469.117C219.347 518.249 242.662 702.253 242.662 702.253L300.124 708.084L324.273 496.591C324.273 496.591 470.86 494.092 481.677 476.614C492.493 459.136 490.842 395.842 490.842 395.842L428.381 387.512Z" fill="#2F2E41"/>
<path id="Vector_6" d="M246.671 726.961L213.184 760.219C213.184 760.219 156.036 807.151 192.683 804.652C229.33 802.153 324.273 779.677 323.439 762.183C322.606 744.69 307.608 709.734 307.608 709.734L246.655 726.945H246.671V726.961Z" fill="#2F2E41"/>
<path id="Vector_7" d="M441.728 711.573L479.491 770.922L518.748 733.845L486.519 687.541L441.728 711.573Z" fill="#FFB6B6"/>
<path id="Vector_8" d="M470.279 358.309C470.279 358.309 333.187 462.421 337.07 515.31C340.969 568.199 443.536 722.748 443.536 722.748L497.618 702.473L425.394 502.233C425.394 502.233 555.647 434.963 557.58 414.499C559.514 394.035 529.942 338.065 529.942 338.065L470.263 358.309H470.279Z" fill="#2F2E41"/>
<path id="shoe" d="M459.226 739.173L440.156 789.893C440.156 789.893 412.502 855.199 444.228 836.699C475.954 818.2 551.056 755.943 542.551 740.635C534.045 725.326 505.086 700.65 505.086 700.65L459.226 739.173Z" fill="#2F2E41"/>
<path id="Vector_9" d="M458.66 129.7C487.053 129.7 510.07 106.689 510.07 78.304C510.07 49.9189 487.053 26.9082 458.66 26.9082C430.268 26.9082 407.251 49.9189 407.251 78.304C407.251 106.689 430.268 129.7 458.66 129.7Z" fill="#FFB6B6"/>
<path id="Vector_10" d="M496.675 117.755L432.547 165.221L422.548 371.716L398.4 395.025L481.677 476.63C481.677 476.63 573.286 448.323 564.121 405.021L554.955 361.72L558.256 313.405C563.099 242.755 541.088 172.891 496.644 117.77H496.675V117.755Z" fill="#43A1D7"/>
<path id="Vector_11" d="M495.637 118.823L464.352 117.786C464.352 117.786 472.464 68.7793 453.126 69.0465L435.644 60.732C435.644 60.732 391.922 31.2776 411.967 18.9237C432.028 6.58557 446.02 -4.5109 457.481 1.85464C468.958 8.22018 492.194 10.7035 492.194 10.7035C492.194 10.7035 533.416 28.0555 532.19 42.5627C530.964 57.0698 521.594 120.615 495.622 118.808H495.637V118.823Z" fill="#2F2E41"/>
<path id="uuid-b608ab84-b9cd-47a8-808f-666f8f7d666f-41" d="M359.174 468.535C363.466 462.138 366.171 454.814 367.051 447.175L415.19 382.687L383.826 360.683L338.375 428.472C331.725 432.354 326.112 437.792 321.993 444.283C311.46 460.425 311.255 478.924 321.521 485.62C331.787 492.316 348.641 484.661 359.174 468.535Z" fill="#FFB6B6"/>
<path id="Vector_12" d="M554.373 212.342L488.248 172.718L368.026 376.809L403.651 411.434L554.373 212.342Z" fill="#43A1D7"/>
<path id="Vector_13" d="M890.594 517.212L904.712 652.382L850.881 656.704L847.8 525.511L890.594 517.212Z" fill="#FFB6B6"/>
<path id="Vector_14" d="M905.357 622.566L948.748 641.144C948.748 641.144 1019.18 663.698 984.2 674.889C949.22 686.08 852.674 700.194 846.998 683.628C841.323 667.062 842.36 629.041 842.36 629.041L905.357 622.581V622.566Z" fill="#2F2E41"/>
<path id="Vector_15" d="M673.511 344.478L695.883 355.197C695.883 355.197 860.299 345.971 871.461 376.463C882.623 406.97 904.209 589.229 904.209 589.229L846.165 592.954L820.869 469.463L673.527 344.478H673.511Z" fill="#2F2E41"/>
<path id="uuid-2fb5f450-2303-4fbd-97a7-1c64874c1514-42" d="M829.233 381.351C823.715 375.976 817.002 371.999 809.628 369.752L754.854 310.796L727.546 337.672L786.046 394.585C788.671 401.815 792.995 408.322 798.655 413.54C812.631 426.806 830.805 430.342 839.248 421.462C847.69 412.581 843.209 394.616 829.233 381.367V381.351Z" fill="#FFB6B6"/>
<path id="Vector_16" d="M612.386 143.217L561.464 201.104L740.595 356.109L781.094 327.33L612.386 143.217Z" fill="#F9A826"/>
<path id="Vector_17" d="M808.685 514.446L721.996 619.124L681.215 583.728L772.793 489.691L808.685 514.446Z" fill="#FFB6B6"/>
<path id="Vector_18" d="M742.183 590.439L759.288 634.417C759.288 634.417 792.476 700.492 759.995 683.345C727.515 666.197 649.866 607.147 657.711 591.492C665.556 575.838 693.462 549.967 693.462 549.967L742.183 590.424V590.439Z" fill="#2F2E41"/>
<path id="Vector_19" d="M575.298 386.883C575.298 386.883 542.551 464.244 596.13 464.244C649.709 464.244 775.465 459.781 775.465 459.781L738.252 525.244L782.163 547.562C782.163 547.562 874.432 460.519 868.474 421.1C862.515 381.681 695.883 355.197 695.883 355.197L662.223 364.046L575.298 386.883Z" fill="#2F2E41"/>
<path id="Vector_20" d="M570.865 17.4777C570.865 17.4777 628.626 20.5426 633.798 42.7041C638.971 64.8499 627.132 87.4672 645.715 87.2315C664.298 86.9957 670.791 95.2631 670.791 95.2631C670.791 95.2631 651.831 148.938 622.054 152.019C592.278 155.099 570.865 17.4777 570.865 17.4777Z" fill="#2F2E41"/>
<path id="Vector_21" d="M609.603 165.504L611.395 115.743L546.858 106.595L543.211 150.84L609.603 165.504Z" fill="#FFB6B6"/>
<path id="Vector_22" d="M627.132 66.846C636.141 93.7542 621.614 122.879 594.699 131.885C567.784 140.891 538.652 126.368 529.643 99.4596C520.635 72.5515 535.161 43.4271 562.077 34.4211C588.992 25.415 618.124 39.9379 627.132 66.846Z" fill="#FFB6B6"/>
<path id="Vector_23" d="M618.344 146.015L559.263 133.708L548.257 232.382C545.443 243.321 550.883 284.878 553.776 295.786L571.573 415.473L695.883 355.182L667.568 285.051L673.715 234.598L618.328 146.015H618.344Z" fill="#F9A826"/>
<path id="uuid-2ae02034-8b61-43cb-9dde-8a75b258f379-43" d="M646.423 278.355C638.876 279.927 631.833 283.274 625.843 288.131L546.324 300.611L553.367 338.27L633.264 321.546C640.732 323.401 648.545 323.448 656.029 321.688C674.847 317.507 687.928 304.414 685.271 292.453C682.614 280.492 665.21 274.174 646.407 278.355H646.423Z" fill="#FFB6B6"/>
<path id="Vector_24" d="M599.431 208.255L546.088 162.628L467.386 300.611C465.059 332.768 494.411 358.074 525.886 351.016L596.475 333.806L583.002 277.019L543.321 275.557L599.463 208.24H599.431V208.255Z" fill="#F9A826"/>
<path id="Vector_25" d="M538.84 27.4425C538.84 27.4425 475.577 44.8731 489.931 69.9266C504.284 94.9802 521.138 102.022 519.047 116.167C516.956 130.313 533.605 185.182 558.932 176.711C584.26 168.239 622.07 152.019 622.07 152.019C622.07 152.019 568.68 107.177 578.081 99.5696C587.483 91.9624 557.816 38.2718 557.816 38.2718C557.816 38.2718 587.923 23.7175 603.88 28.087C619.838 32.4564 628.736 30.979 628.736 30.979C628.736 30.979 585.266 -9.71336 565.944 6.45983C546.622 22.633 538.856 27.4583 538.856 27.4583C538.856 27.4583 538.856 27.4583 538.856 27.4425H538.84Z" fill="#2F2E41"/>
</g>
<defs>
<clipPath id="clip0_1_3">
<rect width="1089" height="840" fill="white"/>
</clipPath>
</defs>
</svg>
